<?xml version="1.0" encoding="utf-8"?>
<!-- Generator: Adobe Illustrator 22.0.1, SVG Export Plug-In . SVG Version: 6.00 Build 0)  -->
<svg version="1.1" xmlns="http://www.w3.org/2000/svg" xmlns:xlink="http://www.w3.org/1999/xlink" x="0px" y="0px"
	 viewBox="0 0 512 512" style="enable-background:new 0 0 512 512;" xml:space="preserve">
<style type="text/css">
	.st0{fill:#71BCFF;}
	.st1{fill:#E49696;}
	.st2{fill:#EFC971;}
	.st3{fill:#77D284;}
	.st4{fill:#7F78BB;}
	.st5{fill:#518FF4;}
	.st6{fill:#EAA9B9;}
	.st7{fill:#F5DE92;}
	.st8{fill:#96EBE4;}
	.st9{fill:#E6AFC1;}
	.st10{fill:#5596C6;}
	.st11{fill:#74B1F6;}
	.st12{fill:#F5E5BD;}
	.st13{fill:none;stroke:#5E8783;stroke-width:8;stroke-linecap:round;stroke-miterlimit:10;}
	.st14{fill:#679795;}
	.st15{fill:#74AAAA;}
	.st16{fill:#7FBDBF;}
	.st17{fill:#D3F8F5;}
	.st18{fill:#7BB5B2;}
	.st19{fill:#B7F1F1;}
	.st20{fill:#A8DBD9;}
	.st21{fill:none;stroke:#748BA4;stroke-width:8;stroke-linecap:round;stroke-miterlimit:10;}
	.st22{fill:#748BA4;}
	.st23{fill:#82A0C8;}
	.st24{fill:#7C96B6;}
	.st25{fill:#8DAADE;}
	.st26{fill:#A0BDE5;}
	.st27{fill:none;stroke:#99536E;stroke-width:8;stroke-linecap:round;stroke-miterlimit:10;}
	.st28{fill:#99536E;}
	.st29{fill:#A35B7B;}
	.st30{fill:#E393AC;}
	.st31{fill:#E06E8A;}
	.st32{fill:#B45B77;}
	.st33{fill:#EEC8D7;}
	.st34{fill:#E8B9B9;}
	.st35{fill:#DA4545;}
	.st36{fill:#A63F3F;}
	.st37{fill:#DB5757;}
	.st38{fill:#ECF6FF;}
	.st39{fill:#DB50B1;}
	.st40{fill:#B24798;}
	.st41{fill:#E093D2;}
	.st42{fill:#A3CCF8;}
	.st43{fill:#CBE7FA;}
	.st44{fill:#AD3C3C;}
	.st45{fill:#DD88A0;}
	.st46{fill:#C47E94;}
	.st47{fill:#7673AB;}
	.st48{fill:#D6B168;}
	.st49{fill:#75ACAC;}
	.st50{fill:#FFFFFF;}
	.st51{fill:#E3B6C5;}
	.st52{fill:#DE6F6F;}
	.st53{fill:none;}
	.st54{fill:#90BFEA;}
	.st55{fill:#DB6E6E;}
	.st56{fill:#B13E3E;}
	.st57{fill:#C66666;}
	.st58{fill:#CF98A8;}
	.st59{fill:#F1D4DD;}
	.st60{fill:#B8899A;}
	.st61{fill:#7370AA;}
	.st62{fill:#8A87CE;}
	.st63{fill:#DA6464;}
	.st64{fill:#589960;}
	.st65{fill:#67B575;}
	.st66{fill:#C78321;}
	.st67{fill:#D7C431;}
	.st68{fill:#E59B25;}
	.st69{fill:#F6E637;}
	.st70{fill:#D3AE68;}
	.st71{fill:#1C314E;}
	.st72{fill:#FFFDFC;}
	.st73{fill:#DC8282;}
	.st74{fill:#DBDBDB;}
	.st75{fill:#CC6785;}
	.st76{fill:#D29FAE;}
	.st77{fill:#C4C4C4;}
	.st78{fill:#B13D3D;}
	.st79{fill:#9D3A3A;}
	.st80{fill:#F3DDB1;}
	.st81{fill:#D6B269;}
	.st82{fill:#C6819A;}
	.st83{fill:#B77C94;}
	.st84{fill:#DACFB5;}
	.st85{fill:#E9DCBC;}
	.st86{fill:#7471AB;}
	.st87{fill:#DE9BBA;}
	.st88{fill:#D189A6;}
	.st89{fill:#C2E1FD;}
	.st90{fill:#BC6383;}
	.st91{fill:#9B99D9;}
	.st92{fill:#F4E2B1;}
	.st93{fill:#B96281;}
	.st94{fill:#B08979;}
	.st95{fill:#D9A2B2;}
	.st96{fill:#F0D0D9;}
	.st97{fill:#DCBFC8;}
	.st98{fill:#708761;}
	.st99{fill:#779366;}
	.st100{fill:#9FBF8B;}
	.st101{fill:#A37F72;}
	.st102{fill:#D59EAE;}
	.st103{fill:#BC6381;}
	.st104{fill:#716EA8;}
	.st105{fill:#8481B6;}
	.st106{fill:#918BC6;}
	.st107{fill:#76AFAF;}
	.st108{fill:#BEDBD8;}
	.st109{fill:#EAB9C9;}
	.st110{fill:#A03B3B;}
	.st111{fill:#893535;}
	.st112{fill:#EFCED8;}
	.st113{fill:#F7EB83;}
	.st114{fill:#F1D7D7;}
	.st115{fill:#A35773;}
	.st116{fill:#DCC832;}
	.st117{fill:#BD8F9E;}
	.st118{fill:#6F6DA6;}
	.st119{fill:#D7A0B0;}
	.st120{fill:#8C89CC;}
	.st121{fill:none;stroke:#FFFFFF;stroke-width:8;stroke-linecap:round;stroke-miterlimit:10;}
	.st122{fill:#B53C3C;}
	.st123{fill:#C5E3DF;}
	.st124{fill:#956C42;}
	.st125{fill:#BD8E4D;}
	.st126{fill:#A97C47;}
	.st127{fill:#F5DEAE;}
	.st128{fill:#EDC495;}
	.st129{fill:#6F6DA4;}
	.st130{fill:#704A42;}
	.st131{fill:#A57A46;}
	.st132{fill:#C4DEF9;}
	.st133{fill:#B4CDE2;}
	.st134{fill:#8F8CD2;}
	.st135{fill:#A6BDCB;}
	.st136{fill:#9EB3BE;}
	.st137{fill:#9BAEB9;}
	.st138{fill:#71A5A5;}
	.st139{fill:none;stroke:#31315D;stroke-width:8;stroke-miterlimit:10;}
	.st140{fill:#C1F6F6;}
	.st141{fill:#C66482;}
	.st142{fill:#ABD6D4;}
	.st143{fill:#A5597B;}
	.st144{fill:#ECCBD5;}
	.st145{fill:#3E3A73;}
	.st146{fill:#453D80;}
	.st147{fill:#31315D;}
	.st148{fill:#D3BEC5;}
	.st149{fill:#7370A9;}
	.st150{fill:#A0526B;}
	.st151{fill:#D3AA5F;}
	.st152{fill:#F1D69F;}
	.st153{fill:#CC9180;}
	.st154{fill:#E4A38D;}
	.st155{fill:#E0A693;}
	.st156{fill:#EDBCA8;}
	.st157{fill:#E0A745;}
	.st158{fill:#3C3970;}
	.st159{fill:#4E4991;}
	.st160{fill:#B3ADFB;}
	.st161{fill:#B9863F;}
	.st162{fill:#CD9642;}
	.st163{fill:#BA893F;}
	.st164{fill:#A97C3D;}
	.st165{fill:#182A3F;}
	.st166{fill:none;stroke:#805D31;stroke-width:12;stroke-linecap:round;stroke-miterlimit:10;}
	.st167{fill:#EAC382;}
	.st168{fill:#467ABC;}
	.st169{fill:#D19943;}
	.st170{fill:#C26280;}
	.st171{fill:#CD97A7;}
	.st172{fill:#DEDCDC;}
	.st173{fill:#A53636;}
	.st174{fill:#D6D6D6;}
	.st175{fill:#A67B47;}
	.st176{fill:#A0546F;}
	.st177{fill:#B8D6D3;}
	.st178{fill:#A19EF2;}
	.st179{fill:none;stroke:#453D80;stroke-width:8;stroke-linecap:round;stroke-miterlimit:10;}
	.st180{fill:#E08DA7;}
	.st181{fill:#DA6A19;}
	.st182{fill:#A7F6F6;}
	.st183{fill:#BE6480;}
	.st184{fill:#C2809A;}
	.st185{fill:#C06581;}
	.st186{fill:#A8607D;}
	.st187{fill:#618C88;}
	.st188{fill:#676797;}
	.st189{fill:#D2FFFC;}
	.st190{fill:#3C3870;}
	.st191{fill:#BFE3E0;}
	.st192{fill:#DEC888;}
	.st193{fill:#9A9AE4;}
	.st194{fill:#689795;}
	.st195{fill:#A1E8E8;}
	.st196{fill:#C3A062;}
	.st197{fill:#C5A162;}
	.st198{fill:#EDC771;}
	.st199{fill:#DBC586;}
	.st200{fill:#D1D1D1;}
	.st201{fill:#AF8F5B;}
	.st202{fill:#F6EAC7;}
	.st203{fill:#7F78B9;}
	.st204{fill:#E9A7B7;}
	.st205{fill:#8A87CA;}
	.st206{fill:#ECC6D5;}
	.st207{fill:#D1F6F3;}
	.st208{fill:#D69EAC;}
	.st209{fill:#AC8494;}
	.st210{fill:#BB8D9C;}
	.st211{fill:#7F7FBA;}
	.st212{fill:#C3E3DF;}
	.st213{fill:none;stroke:#5E8581;stroke-width:8;stroke-linecap:round;stroke-miterlimit:10;}
	.st214{fill:#669593;}
	.st215{fill:#74A8A8;}
	.st216{fill:#7EBBBC;}
	.st217{fill:#7AB3B0;}
	.st218{fill:#B5EFEF;}
	.st219{fill:#A6D9D7;}
	.st220{fill:#BD8F9F;}
	.st221{fill:#D29CAC;}
	.st222{fill:none;stroke:#98536E;stroke-width:8;stroke-linecap:round;stroke-miterlimit:10;}
	.st223{fill:#993737;}
	.st224{fill:#AC3939;}
	.st225{fill:#C3E1DD;}
	.st226{fill:#E5CE8C;}
	.st227{fill:#BF9869;}
	.st228{fill:#D3A971;}
	.st229{fill:#FBF4DD;}
	.st230{fill:#A35974;}
	.st231{fill:#73AAAA;}
	.st232{fill:#A55874;}
	.st233{fill:#E8BAAD;}
	.st234{fill:#DA9B8A;}
	.st235{fill:#D9B46B;}
	.st236{fill:#A36C56;}
	.st237{fill:#936252;}
	.st238{fill:#AB705D;}
	.st239{fill:#8A5C4D;}
	.st240{fill:#805649;}
	.st241{fill:#D3A29A;}
	.st242{fill:#AB5977;}
	.st243{fill:#B53F6A;}
	.st244{fill:#81574B;}
	.st245{fill:#F0D2DC;}
	.st246{fill:#93D4CF;}
	.st247{fill:#B6FBFB;}
	.st248{fill:#E0B96C;}
	.st249{fill:#A83A3A;}
	.st250{fill:#793131;}
	.st251{fill:#873333;}
	.st252{fill:#722E2E;}
	.st253{fill:#B53F3F;}
	.st254{fill:#E09393;}
	.st255{fill:#C4B180;}
	.st256{fill:#B19F76;}
	.st257{fill:#F3DC90;}
	.st258{fill:#E3CC8B;}
	.st259{fill:#774F43;}
	.st260{fill:#624038;}
	.st261{fill:#90FF9A;}
	.st262{fill:#91D2CD;}
	.st263{fill:#B4F9F9;}
	.st264{fill:#BB8C4D;}
	.st265{fill:#DE6E88;}
	.st266{fill:#BA6381;}
	.st267{fill:#B25B77;}
	.st268{fill:#9DD6D3;}
	.st269{fill:#B95F7C;}
	.st270{fill:#F3D5DF;}
	.st271{fill:#B9D9D6;}
	.st272{fill:#A9C7C4;}
	.st273{fill:#71A7A7;}
	.st274{fill:#833232;}
	.st275{fill:#9B3A3A;}
	.st276{fill:#752F2F;}
	.st277{fill:#B53E3E;}
	.st278{fill:#B58E9D;}
	.st279{fill:#BB909F;}
	.st280{fill:#CD99A8;}
	.st281{fill:#F2D9E1;}
	.st282{fill:#9BD4D1;}
	.st283{fill:#B2F7F7;}
	.st284{fill:#F1DA8E;}
	.st285{fill:#F2E0AF;}
	.st286{fill:#F9F9FF;}
	.st287{fill:#CA8F80;}
	.st288{fill:#E2A18B;}
	.st289{fill:#E6B8AB;}
	.st290{fill:#D89988;}
	.st291{fill:#D7B26B;}
	.st292{fill:#8D8ACE;}
	.st293{fill:#9FD6D2;}
	.st294{fill:#B3F3F0;}
	.st295{fill:#C8FFFF;}
	.st296{fill:#F4DAA4;}
	.st297{fill:#BFBFBF;}
	.st298{fill:#D7A2B2;}
	.st299{fill:#D4D4D4;}
	.st300{fill:#EDD094;}
	.st301{fill:#BF8E9D;}
	.st302{fill:#AA8190;}
	.st303{fill:#D69EAE;}
	.st304{fill:#AD3D3D;}
	.st305{fill:#8986CE;}
	.st306{fill:#B24B6B;}
	.st307{fill:#EFCD88;}
	.st308{fill:#F4E9CC;}
	.st309{fill:#CFAA66;}
	.st310{fill:#F8E9C9;}
	.st311{fill:#3B386E;}
	.st312{fill:#AA3939;}
	.st313{fill:#67433B;}
	.st314{fill:#CF9AAA;}
	.st315{fill:#C46583;}
	.st316{fill:#9491D7;}
	.st317{fill:#8784C9;}
	.st318{fill:#FBFBFB;}
	.st319{fill:#D3BE80;}
	.st320{fill:none;stroke:#453D80;stroke-width:8;stroke-miterlimit:10;}
	.st321{fill:#C591A0;}
	.st322{fill:#F1D7DF;}
	.st323{fill:#AD7F8E;}
	.st324{fill:#D8C3CA;}
	.st325{fill:#DFA868;}
	.st326{fill:#C66684;}
	.st327{fill:#C7C7C7;}
	.st328{fill:#AA5F80;}
	.st329{fill:#A75770;}
	.st330{fill:#93506A;}
	.st331{fill:#D1AC66;}
	.st332{fill:#F4E0B8;}
	.st333{fill:#F4D7E1;}
	.st334{fill:#EECA80;}
	.st335{fill:#C0DFFB;}
	.st336{fill:#DC5E5E;}
	.st337{fill:#CD9942;}
	.st338{fill:#E1AA46;}
	.st339{fill:#F4D8A2;}
	.st340{fill:#27918E;}
	.st341{fill:#29A3A3;}
	.st342{fill:#91D9D9;}
	.st343{fill:#BFA94C;}
	.st344{fill:#D3BA53;}
	.st345{fill:#F0E182;}
	.st346{fill:#EDD458;}
	.st347{fill:#AB7E47;}
	.st348{fill:#886358;}
	.st349{fill:#E3B47A;}
	.st350{fill:#413D79;}
	.st351{fill:#B76180;}
	.st352{fill:none;stroke:#1C314E;stroke-width:8;stroke-linecap:round;stroke-miterlimit:10;}
	.st353{fill:#E08F8D;}
	.st354{fill:#CFA0B0;}
	.st355{fill:#DC809F;}
	.st356{fill:#CF5181;}
	.st357{fill:#6967BA;}
	.st358{fill:#BC537D;}
	.st359{fill:#C2DCF7;}
	.st360{fill:#B2CBE0;}
	.st361{fill:#A4BBC9;}
	.st362{fill:#9CB0BC;}
	.st363{fill:#99ACB7;}
	.st364{fill:#559562;}
	.st365{fill:#4D8556;}
	.st366{fill:#453D7F;}
	.st367{fill:#57529E;}
	.st368{fill:#B8863C;}
	.st369{fill:#DEA545;}
	.st370{fill:#C46682;}
	.st371{fill:#B1607F;}
	.st372{fill:#A15B7B;}
	.st373{fill:#75AAAA;}
	.st374{fill:#EBC4D5;}
	.st375{fill:#866358;}
	.st376{fill:#DE8D8B;}
	.st377{fill:#BA883C;}
	.st378{fill:#569762;}
	.st379{fill:#4E8756;}
	.st380{fill:#5752A0;}
	.st381{fill:#B36080;}
	.st382{fill:#EDC6D7;}
	.st383{fill:#D19AAA;}
	.st384{fill:#E7B5B5;}
	.st385{fill:#676795;}
	.st386{fill:#E3B469;}
	.st387{fill:#7673AD;}
</style>
<g id="BULINE">
	<circle id="XMLID_1470_" class="st0" cx="256" cy="256" r="256"/>
</g>
<g id="Icons">
	<g id="XMLID_1472_">
		<path id="XMLID_1685_" class="st138" d="M459.3,411.6c-16.1,21-35.3,39.3-57,54.5C360.8,495,310.4,512,256,512
			c-11.3,0-22.4-0.7-33.2-2.1c-17.4-2.2-34.2-6.2-50.3-11.8c-2.7-0.9-5.4-1.9-8-2.9h0l-11.2-4.6c-9-3.9-17.7-8.4-26.1-13.3h0
			c-29.7-17.3-55.6-40.4-76.1-67.8c0.8-3.4,1.7-6.8,2.7-10.2c2.3-8,5.1-15.7,8.4-23.3c16-37.5,42.6-69.3,76.1-91.8
			c9.7-6.6,20.1-12.3,30.9-17.2c0.7-0.3,1.4-0.6,2.1-0.9c5.9-2.6,11.9-4.9,18-6.9c2.7-0.9,5.5-1.8,8.3-2.6
			c5.1-1.4,10.2-2.7,15.4-3.8c1.7-0.3,3.3-0.7,5-1c2.4-0.4,4.8-0.8,7.2-1.1c5-0.7,10.1-1.3,15.2-1.6c4.9-0.3,9.7-0.5,14.7-0.5
			c7.5,0,14.8,0.4,22.1,1.2c2.4,0.3,4.9,0.5,7.3,0.9c6.6,0.9,13.2,2.2,19.6,3.7c4.5,1.1,8.9,2.3,13.2,3.6c4,1.2,7.9,2.6,11.7,4
			c5.3,2,10.6,4.2,15.7,6.7c15.5,7.3,29.9,16.5,43,27.2c8.6,7,16.6,14.7,24,23c14.1,15.8,25.8,33.8,34.6,53.4
			c0.5,1.2,1.1,2.4,1.6,3.6c3.2,7.6,6,15.3,8.4,23.3C457.3,403.3,458.3,407.4,459.3,411.6z"/>
		<g id="XMLID_1473_">
			<path id="XMLID_1530_" class="st139" d="M184.3,106.9c0,0-32.8,26.3,0,73.3c0,0,26.9,39.7,0,88.9"/>
			<path id="XMLID_1529_" class="st139" d="M280.7,137.7c0,0,0.1,60.5-84.5,84.4"/>
			<g id="XMLID_1523_">
				<path id="XMLID_1528_" class="st31" d="M233.2,65.9l-20.7,20.6l-21.1,21c-5.3,5.3-13.8,5.2-19.1,0l-41.6-41.8
					c-6.5-6.5-9.7-15-9.7-23.5c0-8.5,3.3-17,9.8-23.5c5.3-5.3,12-8.4,18.8-9.4c1.5-0.2,3.1-0.3,4.7-0.3c8.5,0,17,3.3,23.5,9.8
					c2.3,2.3,6.1,2.3,8.5,0c6.5-6.5,15-9.7,23.5-9.7c8.5,0,17,3.3,23.5,9.8C246.3,31.9,246.2,53,233.2,65.9z"/>
				<path id="XMLID_1527_" class="st90" d="M233.2,65.9l-20.7,20.6l-21.1,21c-5.3,5.3-13.8,5.2-19.1,0l-41.6-41.8
					c-6.5-6.5-9.7-15-9.7-23.5c0-8.5,3.3-17,9.8-23.5c5.3-5.3,12-8.4,18.8-9.4C149.7,9.4,176.8,62.2,233.2,65.9z"/>
				<path id="XMLID_1526_" class="st32" d="M212.5,86.6l-21.1,21c-5.3,5.3-13.8,5.2-19.1,0l-41.6-41.8c-6.5-6.5-9.7-15-9.7-23.5
					c0-8.5,3.3-17,9.8-23.5c5.3-5.3,12-8.4,18.8-9.4v0C149.7,9.4,142.1,71.8,212.5,86.6z"/>
				
					<ellipse id="XMLID_1525_" transform="matrix(0.775 -0.6319 0.6319 0.775 34.1155 146.1494)" class="st33" cx="222.3" cy="25.2" rx="8.8" ry="10.9"/>
				
					<ellipse id="XMLID_1524_" transform="matrix(0.775 -0.6319 0.6319 0.775 27.4737 156.3199)" class="st33" cx="233.3" cy="39.6" rx="3.7" ry="4.6"/>
			</g>
			<g id="XMLID_1517_">
				<path id="XMLID_1522_" class="st31" d="M314.8,114.9l-13.7,13.7l-14,14c-3.5,3.5-9.2,3.5-12.7,0l-27.7-27.7
					c-4.3-4.3-6.5-10-6.5-15.6c0-5.7,2.2-11.3,6.5-15.6c3.5-3.5,7.9-5.6,12.5-6.3c1-0.1,2.1-0.2,3.1-0.2c5.7,0,11.3,2.2,15.6,6.5
					c1.6,1.6,4.1,1.6,5.6,0c4.3-4.3,10-6.5,15.6-6.5c5.7,0,11.3,2.2,15.6,6.5C323.4,92.2,323.4,106.2,314.8,114.9z"/>
				<path id="XMLID_1521_" class="st90" d="M314.8,114.9l-13.7,13.7l-14,14c-3.5,3.5-9.2,3.5-12.7,0l-27.7-27.7
					c-4.3-4.3-6.5-10-6.5-15.6c0-5.7,2.2-11.3,6.5-15.6c3.5-3.5,7.9-5.6,12.5-6.3C259.2,77.3,277.2,112.4,314.8,114.9z"/>
				<path id="XMLID_1520_" class="st32" d="M301.1,128.6l-14,14c-3.5,3.5-9.2,3.5-12.7,0l-27.7-27.7c-4.3-4.3-6.5-10-6.5-15.6
					c0-5.7,2.2-11.3,6.5-15.6c3.5-3.5,7.9-5.6,12.5-6.3v0C259.2,77.4,254.2,118.9,301.1,128.6z"/>
				
					<ellipse id="XMLID_1519_" transform="matrix(0.7741 -0.6331 0.6331 0.7741 13.904 214.5012)" class="st33" cx="307.5" cy="87.8" rx="5.8" ry="7.3"/>
				
					<ellipse id="XMLID_1518_" transform="matrix(0.7741 -0.6331 0.6331 0.7741 9.4925 221.289)" class="st33" cx="314.8" cy="97.3" rx="2.4" ry="3"/>
			</g>
			<g id="XMLID_1474_">
				<g id="XMLID_1478_">
					<path id="XMLID_1513_" class="st31" d="M481.8,340.4c-0.6-2.2-1.2-4.4-1.9-6.5c-0.5-1.4-1-2.8-1.6-4.2
						c-0.9-2.1-1.8-4.1-2.9-6.1c-0.6-1.1-1.2-2.2-1.8-3.2c-0.2-0.3-0.4-0.7-0.6-1c-1.5-2.5-3.2-4.8-5-7.1c-0.9-1.1-1.8-2.2-2.7-3.2
						c-13.5-15.1-33.1-24.6-55-24.6h-19.3c-15.3,0-29.3-8.1-37.1-21.3c-21.4-36.2-60.8-60.4-105.9-60.4h-63.4
						c-21.7,0-41.2,11.8-54.7,29c2.9,3,5.9,6.1,9.3,9.4c7.3-8.6,18.1-13.8,29.7-13.8h48.3c0.1,0,0.3,0,0.4,0c0.1,0,0.2,0,0.3,0
						c0.8,0.1,1.5,0.2,2.1,0.5c0.1,0,0.3,0.1,0.4,0.2c0.5,0.2,0.9,0.4,1.3,0.7c0.1,0.1,0.2,0.1,0.3,0.2c0.1,0.1,0.2,0.2,0.4,0.3
						c0.1,0.1,0.2,0.2,0.3,0.3c0.1,0.1,0.2,0.2,0.3,0.3c0.1,0.1,0.2,0.2,0.3,0.3c0.1,0.1,0.2,0.2,0.3,0.4c0.1,0.1,0.1,0.2,0.2,0.3
						c0,0,0.1,0.1,0.1,0.2c0.1,0.2,0.2,0.4,0.3,0.6c0.1,0.2,0.2,0.3,0.3,0.5c0,0,0,0,0,0c0.1,0.2,0.1,0.3,0.2,0.5
						c0.1,0.2,0.2,0.5,0.2,0.7c0,0.2,0.1,0.3,0.1,0.5c0,0,0,0.1,0,0.2c0,0.2,0.1,0.4,0.1,0.6c0,0.2,0,0.4,0,0.6v41
						c0,2.2-0.9,4.2-2.4,5.6c-1.4,1.4-3.4,2.3-5.6,2.3h-24.3c34.3,23,79.8,46.5,138.5,64.3c3,0.9,6,1.8,9,2.6
						c1.6,0.4,3.2,0.9,4.8,1.3c3.8,1.1,7.7,2.1,11.6,3.1c0.7,0.2,1.3,0.3,2,0.5c4.1,1,8.2,2.1,12.4,3c1.1,0.2,2.1,0.5,3.2,0.7
						c6.2,1.4,12.4,2.8,18.9,4c3.4,0.7,6.8,1.3,10.2,2c0.7,0.1,1.3,0.2,2,0.4c2.8,0.5,5.6,1,8.4,1.5c3.5,0.6,7.1,1.2,10.6,1.7
						c2,0.3,3.9,0.6,5.9,0.9c5.2,0.8,10.5,1.5,15.8,2.1c11.4,1.4,23,2.6,35.1,3.6h2.7v-17.7C483.9,352.1,483.2,346.1,481.8,340.4z
						 M247.2,284.1c-0.2,0-0.5,0-0.7,0c-0.2,0-0.5-0.1-0.7-0.1c0,0,0,0,0,0c-0.2-0.1-0.4-0.1-0.6-0.2c0,0-0.1,0-0.1,0
						c-0.2-0.1-0.4-0.1-0.6-0.2c-0.2-0.1-0.3-0.1-0.4-0.2c0,0,0,0-0.1,0c-0.1,0-0.2-0.1-0.2-0.1c0,0-0.1,0-0.1-0.1
						c-0.2-0.1-0.5-0.3-0.7-0.5c-0.1-0.1-0.2-0.2-0.3-0.2c-0.2-0.2-0.5-0.4-0.7-0.7c-0.1-0.1-0.2-0.2-0.3-0.3c0,0,0,0,0,0
						c-0.2-0.2-0.3-0.4-0.4-0.6c0,0,0-0.1-0.1-0.1c-0.1-0.1-0.1-0.2-0.1-0.3c-0.2-0.4-0.4-0.8-0.5-1.2c0-0.2-0.1-0.3-0.1-0.5
						c0,0,0-0.1,0-0.1c0-0.2-0.1-0.4-0.1-0.6c0,0,0,0,0,0c0-0.2,0-0.5,0-0.7v-43c0-3.8,3.1-6.9,6.9-6.9h33.7c0.7,0,1.3,0,2,0
						c0.1,0,0.1,0,0.2,0c0.6,0,1.2,0.1,1.9,0.1c0.1,0,0.1,0,0.2,0c0.6,0,1.3,0.1,1.9,0.2c0.2,0,0.3,0,0.5,0.1c0.5,0.1,1,0.1,1.5,0.2
						c0.2,0,0.3,0,0.4,0.1c0.5,0.1,0.9,0.1,1.4,0.2c0.2,0,0.5,0.1,0.7,0.1c0.6,0.1,1.1,0.2,1.7,0.3c0.7,0.1,1.3,0.3,2,0.5
						c0,0,0.1,0,0.1,0c2.1,0.5,4.1,1.2,6.1,1.9c0.5,0.2,0.9,0.3,1.4,0.5c0.4,0.1,0.8,0.3,1.2,0.5c0.3,0.1,0.6,0.2,0.9,0.4
						c0.4,0.2,0.8,0.3,1.1,0.5c0.5,0.2,0.9,0.4,1.4,0.7s0.9,0.5,1.3,0.7c0.4,0.2,0.8,0.4,1.2,0.7c0.9,0.5,1.9,1.1,2.8,1.7
						c0.3,0.2,0.5,0.3,0.8,0.5c0.3,0.2,0.6,0.4,0.9,0.7c0.4,0.2,0.7,0.5,1.1,0.8c0.1,0.1,0.2,0.1,0.3,0.2c0.3,0.2,0.7,0.5,1,0.8
						c0.4,0.3,0.8,0.6,1.2,0.9c0.5,0.4,1,0.9,1.5,1.3c0,0,0.1,0.1,0.1,0.1c0.5,0.5,1.1,0.9,1.6,1.4c0.5,0.4,0.9,0.9,1.4,1.3
						c0.1,0.1,0.2,0.2,0.3,0.3c0.5,0.5,0.9,1,1.4,1.4l2.2,2.4l7.5,8.2l10.7,11.7l4.7,5.2c3.6,3.9,0.8,10.2-4.5,10.2H247.2z"/>
					<path id="XMLID_1512_" class="st140" d="M225,235.2v41c0,4.4-3.6,7.9-7.9,7.9h-24.3c-1.4-1-2.8-1.9-4.2-2.9
						c-3.2-2.2-6.2-4.4-9.2-6.5c-3.3-2.4-6.5-4.8-9.6-7.2c-6.2-4.9-12-9.6-17.3-14.2c-4.9-4.2-9.3-8.3-13.4-12.3
						c7.3-8.6,18.1-13.8,29.7-13.8h48.3c2.6,0,5,1.3,6.4,3.3C224.5,231.8,225,233.5,225,235.2z"/>
					<path id="XMLID_1511_" class="st140" d="M344.7,284.1h-97.5c-1.3,0-2.5-0.4-3.5-1c-2-1.2-3.4-3.4-3.4-6v-43
						c0-3.8,3.1-6.9,6.9-6.9h33.7c5.6,0,11.1,0.8,16.3,2.3c7.5,2.2,14.5,5.8,20.6,10.8c2.2,1.8,4.3,3.8,6.3,5.9l2.2,2.4l7.5,8.2
						l15.4,16.9C352.8,277.8,350,284.1,344.7,284.1z"/>
					<path id="XMLID_1510_" class="st141" d="M481.2,375.9H28.6v-42c0-9.1,2.4-17.5,6.7-24.8c8.6-14.7,24.5-24.6,42.8-24.6h6.2
						c13.8,0,26.1-9.1,29.9-22.4c3.2-11,8.5-21.4,15.5-30.3c2.8,3,6,6.1,9.3,9.4c-2.4,2.8-4.4,6-5.9,9.5l-9.9,22.5
						c-2.3,5.2,1.5,11.1,7.3,11.1h62.3C252,323.9,344.5,365,481.2,375.9z"/>
					<path id="XMLID_1509_" class="st142" d="M192.8,284.1h-62.3c-2.5,0-4.7-1.1-6.1-2.8c-1.8-2.2-2.5-5.3-1.2-8.3l9.9-22.5
						c1.5-3.5,3.5-6.6,5.9-9.5c4.1,3.9,8.5,8,13.4,12.3c5.3,4.6,11,9.3,17.3,14.2c3.1,2.4,6.3,4.8,9.6,7.2c3,2.2,6,4.3,9.2,6.5
						C189.9,282.2,191.3,283.2,192.8,284.1z"/>
					
						<ellipse id="XMLID_1508_" transform="matrix(0.18 -0.9837 0.9837 0.18 29.9139 646.4924)" class="st33" cx="402.7" cy="305.3" rx="14.8" ry="18.5"/>
					<path id="XMLID_1507_" class="st143" d="M191.9,388.8c-1.1,3.2-4,5.5-7.6,5.5c-4,0-7.4-2.9-7.9-6.8
						c-3.3-24.2-24.1-42.9-49.2-42.9S81.3,363.2,78,387.4c-0.5,3.9-4,6.8-7.9,6.8c-3.6,0-6.5-2.3-7.6-5.5
						c5.4-30.9,32.3-54.3,64.7-54.3S186.5,357.9,191.9,388.8z"/>
					<path id="XMLID_1506_" class="st143" d="M436.5,388.8c-1.1,3.2-4,5.5-7.6,5.5c-4,0-7.4-2.9-7.9-6.8
						c-3.3-24.2-24.1-42.9-49.2-42.9c-25.1,0-45.9,18.6-49.2,42.9c-0.5,3.9-4,6.8-7.9,6.8c-3.6,0-6.5-2.3-7.6-5.5
						c5.4-30.9,32.3-54.3,64.7-54.3S431.2,357.9,436.5,388.8z"/>
					
						<ellipse id="XMLID_1505_" transform="matrix(0.18 -0.9837 0.9837 0.18 48.0503 681.314)" class="st33" cx="432.7" cy="311.8" rx="6.2" ry="7.7"/>
					<path id="XMLID_1504_" class="st6" d="M492.9,387.6c0,3.2-1.3,6.1-3.4,8.2s-5,3.4-8.2,3.4H29.4c-6.4,0-11.6-5.2-11.6-11.6
						c0-3.2,1.3-6.1,3.4-8.2c2.1-2.1,5-3.4,8.2-3.4h451.8C487.6,375.9,492.9,381.1,492.9,387.6z"/>
					<path id="XMLID_1503_" class="st144" d="M492.9,387.6c0,3.2-1.3,6.1-3.4,8.2s-5,3.4-8.2,3.4H214.5c-6.4,0-11.6-5.2-11.6-11.6
						c0-3.2,1.3-6.1,3.4-8.2c2.1-2.1,5-3.4,8.2-3.4h266.7C487.6,375.9,492.9,381.1,492.9,387.6z"/>
					<path id="XMLID_1502_" class="st145" d="M420.4,402.8c0,22.5-15.3,41.5-36.1,47c-4,1.1-8.2,1.6-12.5,1.6
						c-26.8,0-48.6-21.8-48.6-48.6c0-26.8,21.8-48.6,48.6-48.6c4.3,0,8.5,0.6,12.5,1.6C405.1,361.4,420.4,380.3,420.4,402.8z"/>
					<path id="XMLID_1501_" class="st146" d="M420.4,402.8c0,22.5-15.3,41.5-36.1,47c-20.8-5.5-36.1-24.5-36.1-47
						c0-22.5,15.3-41.5,36.1-47C405.1,361.4,420.4,380.3,420.4,402.8z"/>
					<circle id="XMLID_1500_" class="st147" cx="371.8" cy="402.9" r="23.6"/>
					<path id="XMLID_1499_" class="st148" d="M388,402.8c0,7.7-5.3,14.1-12.5,15.8c-1.2,0.3-2.4,0.4-3.7,0.4
						c-8.9,0-16.2-7.3-16.2-16.2c0-8.9,7.3-16.2,16.2-16.2c1.3,0,2.5,0.1,3.7,0.4C382.7,388.7,388,395.2,388,402.8z"/>
					<path id="XMLID_1498_" class="st59" d="M388,402.8c0,7.7-5.3,14.1-12.5,15.8c-7.2-1.7-12.5-8.1-12.5-15.8
						c0-7.7,5.3-14.1,12.5-15.8C382.7,388.7,388,395.2,388,402.8z"/>
					<path id="XMLID_1497_" class="st149" d="M429,408.8c-4,0-7.4-2.9-7.9-6.8c-3.3-24.2-24.1-42.9-49.2-42.9
						c-25.1,0-45.9,18.6-49.2,42.9c-0.5,3.9-4,6.8-7.9,6.8c-4.5,0-8-3.7-8-8.1c0-0.4,0-0.8,0.1-1.2c0.1-0.7,0.2-1.4,0.3-2.2
						c5.4-30.9,32.3-54.3,64.7-54.3s59.3,23.4,64.7,54.3c0.1,0.7,0.2,1.4,0.3,2.2C437.6,404.4,433.9,408.8,429,408.8z"/>
					<path id="XMLID_1496_" class="st4" d="M436.5,397.4c-1.1,3.2-4,5.5-7.6,5.5c-4,0-7.4-2.9-7.9-6.8
						c-3.3-24.2-24.1-42.9-49.2-42.9c-25.1,0-45.9,18.6-49.2,42.9c-0.5,3.9-4,6.8-7.9,6.8c-3.6,0-6.5-2.3-7.6-5.5
						c5.4-30.9,32.3-54.3,64.7-54.3S431.2,366.5,436.5,397.4z"/>
					<path id="XMLID_1495_" class="st145" d="M175.8,402.8c0,22.5-15.3,41.5-36.1,47c-4,1.1-8.2,1.6-12.5,1.6
						c-26.8,0-48.6-21.8-48.6-48.6c0-26.8,21.8-48.6,48.6-48.6c4.3,0,8.5,0.6,12.5,1.6C160.4,361.4,175.8,380.3,175.8,402.8z"/>
					<path id="XMLID_1494_" class="st146" d="M175.8,402.8c0,22.5-15.3,41.5-36.1,47c-20.8-5.5-36.1-24.5-36.1-47
						c0-22.5,15.3-41.5,36.1-47C160.4,361.4,175.8,380.3,175.8,402.8z"/>
					<circle id="XMLID_1493_" class="st147" cx="127.2" cy="402.9" r="23.6"/>
					<path id="XMLID_1492_" class="st148" d="M143.4,402.8c0,7.7-5.3,14.1-12.5,15.8c-1.2,0.3-2.4,0.4-3.7,0.4
						c-8.9,0-16.2-7.3-16.2-16.2c0-8.9,7.3-16.2,16.2-16.2c1.3,0,2.5,0.1,3.7,0.4C138,388.7,143.4,395.2,143.4,402.8z"/>
					<path id="XMLID_1491_" class="st59" d="M143.4,402.8c0,7.7-5.3,14.1-12.5,15.8c-7.2-1.7-12.5-8.1-12.5-15.8
						c0-7.7,5.3-14.1,12.5-15.8C138,388.7,143.4,395.2,143.4,402.8z"/>
					<path id="XMLID_1490_" class="st149" d="M184.3,408.8c-4,0-7.4-2.9-7.9-6.8c-3.3-24.2-24.1-42.9-49.2-42.9S81.3,377.8,78,402
						c-0.5,3.9-4,6.8-7.9,6.8c-4.5,0-8-3.7-8-8.1c0-0.4,0-0.8,0.1-1.2c0.1-0.7,0.2-1.4,0.3-2.2c5.4-30.9,32.3-54.3,64.7-54.3
						s59.3,23.4,64.7,54.3c0.1,0.7,0.2,1.4,0.3,2.2C192.9,404.4,189.2,408.8,184.3,408.8z"/>
					<path id="XMLID_1489_" class="st4" d="M191.9,397.4c-1.1,3.2-4,5.5-7.6,5.5c-4,0-7.4-2.9-7.9-6.8
						c-3.3-24.2-24.1-42.9-49.2-42.9S81.3,371.8,78,396c-0.5,3.9-4,6.8-7.9,6.8c-3.6,0-6.5-2.3-7.6-5.5
						c5.4-30.9,32.3-54.3,64.7-54.3S186.5,366.5,191.9,397.4z"/>
					<path id="XMLID_1488_" class="st150" d="M154.9,305.3h-22.5c-2.9,0-5.3-2.4-5.3-5.3v-0.7c0-2.9,2.4-5.3,5.3-5.3h22.5
						c2.9,0,5.3,2.4,5.3,5.3v0.7C160.2,302.9,157.9,305.3,154.9,305.3z"/>
					<path id="XMLID_1487_" class="st150" d="M268,305.3h-22.5c-2.9,0-5.3-2.4-5.3-5.3v-0.7c0-2.9,2.4-5.3,5.3-5.3H268
						c2.9,0,5.3,2.4,5.3,5.3v0.7C273.3,302.9,270.9,305.3,268,305.3z"/>
					<path id="XMLID_1486_" class="st2" d="M62,324.7c0,4.3-1.8,8.2-4.6,11.1c-2.8,2.8-6.7,4.6-11.1,4.6H28.6v-6.5
						c0-9.1,2.4-17.5,6.7-24.8h11.1C55,309.1,62,316.1,62,324.7z"/>
					<path id="XMLID_1485_" class="st151" d="M51.1,324.7c0,4.3-1.8,8.2-4.6,11.1c-2.8,2.8-6.7,4.6-11.1,4.6h-6.8v-6.5
						c0-9.1,2.4-17.5,6.7-24.8h0.1C44.1,309.1,51.1,316.1,51.1,324.7z"/>
					<path id="XMLID_1484_" class="st2" d="M481.8,340.4h-16.6c-7,0-12.6-5.6-12.6-12.6v-6.2c0-7,5.6-12.6,12.6-12.6
						c0.9,1,1.8,2.1,2.7,3.2c2.8,3.5,5.3,7.3,7.4,11.3C478.1,328.8,480.3,334.5,481.8,340.4z"/>
					<path id="XMLID_1483_" class="st152" d="M481.8,340.4h-5.5c-7,0-12.6-5.6-12.6-12.6v-6.2c0-3.7,1.6-7.1,4.2-9.4
						c2.8,3.5,5.3,7.3,7.4,11.3C478.1,328.8,480.3,334.5,481.8,340.4z"/>
					<path id="XMLID_1482_" class="st50" d="M317.8,240.4l-43.7,43.7h-26.9c-1.3,0-2.5-0.4-3.5-1l53.6-53.6
						C304.7,231.8,311.7,235.4,317.8,240.4z"/>
					<polygon id="XMLID_1481_" class="st50" points="333.8,257 306.7,284.1 291,284.1 326.3,248.8 					"/>
					<path id="XMLID_1480_" class="st50" d="M209.9,227.3l-40.2,40.2L153,284.1h-22.5c-2.5,0-4.7-1.1-6.1-2.8l28-28l26-26H209.9z"/>
					<path id="XMLID_1479_" class="st50" d="M225,235.2v9.5l-36.5,36.5l-2.9,2.9h-15.7l53.6-53.6C224.5,231.8,225,233.5,225,235.2z"
						/>
				</g>
				<path id="XMLID_1477_" class="st50" d="M212.4,310.6c-2.4-1.1-4.9-1.1-7.2-0.3s-4.2,2.5-5.3,4.9c-0.4,0.9-1.4,1.2-2.2,0.8
					c-2.4-1.1-4.9-1.1-7.2-0.3c-0.4,0.2-0.8,0.3-1.2,0.5c-1.7,0.9-3.2,2.4-4.1,4.4c-1.1,2.4-1.1,4.9-0.3,7.2
					c0.8,2.3,2.5,4.2,4.9,5.3l15.2,6.9c1.9,0.9,4.2,0,5.1-1.9l3.5-7.7l3.4-7.5C219.2,318.3,217.1,312.7,212.4,310.6z"/>
				<path id="XMLID_1476_" class="st50" d="M312,295.2c2.4-1.1,4.9-1.1,7.2-0.3c2.3,0.8,4.2,2.5,5.3,4.9c0.4,0.9,1.4,1.2,2.2,0.8
					c2.4-1.1,4.9-1.1,7.2-0.3c0.4,0.2,0.8,0.3,1.2,0.5c1.7,0.9,3.2,2.4,4.1,4.4c1.1,2.4,1.1,4.9,0.3,7.2s-2.5,4.2-4.9,5.3l-15.2,6.9
					c-1.9,0.9-4.2,0-5.1-1.9l-3.5-7.7l-3.4-7.5C305.1,302.9,307.2,297.4,312,295.2z"/>
				<path id="XMLID_1475_" class="st50" d="M278,338.6c-2-2-4.6-3-7.2-3s-5.2,1-7.2,3c-0.7,0.7-1.9,0.7-2.6,0c-2-2-4.6-3-7.2-3
					c-0.5,0-1,0-1.4,0.1c-2.1,0.3-4.1,1.3-5.8,2.9c-2,2-3,4.6-3,7.2c0,2.6,1,5.2,3,7.2l12.8,12.8c1.6,1.6,4.2,1.6,5.8,0l6.4-6.4
					l6.3-6.3C281.9,349.1,281.9,342.6,278,338.6z"/>
			</g>
		</g>
	</g>
</g>
</svg>
